<svg xmlns="http://www.w3.org/2000/svg" viewBox="0 0 512 512">
  <rect width="512" height="512" rx="96" fill="#23635a"/>
  <path fill="#fffefb" d="M144 166c0-22 18-40 40-40h144c22 0 40 18 40 40v180c0 22-18 40-40 40H184c-22 0-40-18-40-40V166Zm38 7v126l43-44c9-9 24-9 33 1l23 25 35-46c9-12 27-12 36 1l16 22v-85c0-7-6-13-13-13H195c-7 0-13 6-13 13Zm47 55a35 35 0 1 0 0-70 35 35 0 0 0 0 70Z"/>
  <path fill="#a7d8cf" d="M350 120 365 87l15 33 33 15-33 15-15 33-15-33-33-15 33-15ZM131 358l10-22 10 22 22 10-22 10-10 22-10-22-22-10 22-10Z"/>
</svg>
